<mxfile host="app.diagrams.net" modified="2023-02-07T16:13:34.427Z" agent="5.0 (Windows NT 10.0; Win64; x64) AppleWebKit/537.36 (KHTML, like Gecko) Chrome/108.0.0.0 Safari/537.36" etag="vrxvVnkirsl2--dPnG9l" version="20.8.18" type="github">
  <diagram name="Page-1" id="aF4G5Hs_lMoh60DQ722R">
    <mxGraphModel dx="1434" dy="798" grid="1" gridSize="10" guides="1" tooltips="1" connect="1" arrows="1" fold="1" page="1" pageScale="1" pageWidth="850" pageHeight="1100" math="0" shadow="0">
      <root>
        <mxCell id="0" />
        <mxCell id="1" parent="0" />
        <mxCell id="9KmsIKsTsXMhggBtWNxH-1" value="NESD Inbound Operations for Work History" style="rounded=0;whiteSpace=wrap;html=1;" parent="1" vertex="1">
          <mxGeometry x="40" y="30" width="720" height="40" as="geometry" />
        </mxCell>
        <mxCell id="1lb5UFgHKyQ05DryIwbp-4" value="RestAPI" style="edgeStyle=orthogonalEdgeStyle;rounded=0;orthogonalLoop=1;jettySize=auto;html=1;" edge="1" parent="1" source="1lb5UFgHKyQ05DryIwbp-1" target="1lb5UFgHKyQ05DryIwbp-2">
          <mxGeometry relative="1" as="geometry" />
        </mxCell>
        <mxCell id="1lb5UFgHKyQ05DryIwbp-1" value="NESD RestAPI&lt;br&gt;WHU" style="whiteSpace=wrap;html=1;aspect=fixed;" vertex="1" parent="1">
          <mxGeometry x="50" y="130" width="80" height="80" as="geometry" />
        </mxCell>
        <mxCell id="1lb5UFgHKyQ05DryIwbp-5" value="DSO" style="edgeStyle=orthogonalEdgeStyle;rounded=0;orthogonalLoop=1;jettySize=auto;html=1;" edge="1" parent="1" source="1lb5UFgHKyQ05DryIwbp-2" target="1lb5UFgHKyQ05DryIwbp-3">
          <mxGeometry relative="1" as="geometry" />
        </mxCell>
        <mxCell id="1lb5UFgHKyQ05DryIwbp-2" value="Navy 311&lt;br&gt;WHU RA form" style="whiteSpace=wrap;html=1;aspect=fixed;" vertex="1" parent="1">
          <mxGeometry x="330" y="130" width="80" height="80" as="geometry" />
        </mxCell>
        <mxCell id="1lb5UFgHKyQ05DryIwbp-3" value="ECRM Master WH Diary&lt;br&gt;Field" style="whiteSpace=wrap;html=1;aspect=fixed;" vertex="1" parent="1">
          <mxGeometry x="570" y="130" width="80" height="80" as="geometry" />
        </mxCell>
        <mxCell id="1lb5UFgHKyQ05DryIwbp-6" value="NESD Outbound Operations for Work History" style="rounded=0;whiteSpace=wrap;html=1;" vertex="1" parent="1">
          <mxGeometry x="20" y="270" width="720" height="40" as="geometry" />
        </mxCell>
        <mxCell id="1lb5UFgHKyQ05DryIwbp-8" value="Navy 311&lt;br&gt;GDSC&lt;br&gt;Assignment to NESD" style="whiteSpace=wrap;html=1;aspect=fixed;" vertex="1" parent="1">
          <mxGeometry x="70" y="360" width="80" height="80" as="geometry" />
        </mxCell>
      </root>
    </mxGraphModel>
  </diagram>
</mxfile>
